<svg xmlns="http://www.w3.org/2000/svg" width="32.286" height="26.585" viewBox="0 0 32.286 26.585"><defs><style>.a{fill:#2c3e50;}</style></defs><g transform="translate(0 -0.5)"><path class="a" d="M25.665.5H6.621A6.629,6.629,0,0,0,0,7.121V17.347A6.514,6.514,0,0,0,4.684,23.61l3.2,3.2a.946.946,0,0,0,1.338,0l2.933-2.934H25.665a6.629,6.629,0,0,0,6.621-6.621V7.121A6.629,6.629,0,0,0,25.665.5Zm4.729,16.753a4.735,4.735,0,0,1-4.729,4.729h-13.9a.946.946,0,0,0-.669.277L8.551,24.8,5.844,22.095a.945.945,0,0,0-.44-.249,4.626,4.626,0,0,1-3.512-4.5V7.121A4.735,4.735,0,0,1,6.621,2.392H25.665a4.735,4.735,0,0,1,4.729,4.729Zm0,0"/><path class="a" d="M158.716,144.328H146.7a.946.946,0,0,0,0,1.892h12.012a.946.946,0,0,0,0-1.892Zm0,0" transform="translate(-136.567 -134.759)"/><path class="a" d="M158.716,197.352H146.7a.946.946,0,0,0,0,1.892h12.012a.946.946,0,0,0,0-1.892Zm0,0" transform="translate(-136.567 -184.439)"/></g></svg>