<svg xmlns="http://www.w3.org/2000/svg" width="55" height="55" viewBox="0 0 55 55"><defs><style>.a{fill:#ecf5ff;}.b{fill:#137ef9;}</style></defs><g transform="translate(-1341 -270)"><rect class="a" width="55" height="55" rx="10" transform="translate(1341 270)"/><g transform="translate(1355.17 285.17)"><path class="b" d="M23.021,5.052h1.12v-1.5l-3.44,0-.444,3.466L21.75,7.2,21.9,6.056a11.311,11.311,0,0,1-9.049,18.1h-.009A11.325,11.325,0,1,1,17.034,2.319l.559-1.4A12.825,12.825,0,1,0,12.838,25.66h.01A12.819,12.819,0,0,0,23.021,5.052Z" transform="translate(0 0)"/><path class="b" d="M107.818,100.059a7.817,7.817,0,1,0,7.818,7.817A7.826,7.826,0,0,0,107.818,100.059Zm3.222,8.569h-3.974v-3.974h1.5v2.47h2.471Z" transform="translate(-94.988 -95.044)"/></g></g></svg>